<svg xmlns="http://www.w3.org/2000/svg" width="65" height="22">
  <g fill="none" fill-rule="evenodd">
    <path fill="#FFF" d="M61.7 14.5c0-1.3-1-2.4-2.5-2.4s-2.6 1-2.7 2.4h5.2zM55 20.4a6 6 0 0 1-1.9-4.6c0-1.8.6-3.3 1.7-4.5a5.9 5.9 0 0 1 4.5-1.9c1.8 0 3.2.7 4.2 1.9S65 14 65 15.8v1h-8.5c.3 1.5 1.9 2.4 4 2.4 1.3 0 2.6-.3 3.8-1v2.7c-1 .8-2.6 1.2-4.6 1.2-1.8 0-3.4-.6-4.7-1.7zM41.2 22V8.5L44.6 5v9.1l4.2-4.4H53l-5.3 5.5 6.1 6.7h-4.4l-4.8-5.3V22h-3.4zM35 22v-7.6l3.5-3.2V22h-3.5zm-9.6 0V9.8h3.4v2.7c1-3.2 4.6-2.7 4.6-2.7V13s-4.6-.3-4.6 3.5V22h-3.4zM5.7 22L0 4.9h3.9l3.5 11.6 3.8-11.6H14l3.9 11.6 3.5-11.6H25l-5.7 17.3h-3.1l-3.7-11.5-3.8 11.5H5.7z"/>
    <g transform="translate(30)">
      <polyline fill="#ff6644" points="4 7.7 6.2 10 16 0 11.6 0"/>
      <path fill="#ff9977" d="M.4 4l5.8 6 2.2-2.3L5 4.1H.4z"/>
    </g>
  </g>
</svg>
