<svg xmlns="http://www.w3.org/2000/svg" xmlns:xlink="http://www.w3.org/1999/xlink" width="16" height="16">
  <defs>
    <path id="a" d="M11 11h.3l.2.2 1.3.7h.2l1-1.7V10 10l-1.3-.7-.5-.3v-.5V7l.3-.2h.2l1.2-.8h.1v-.2l-1-1.6-.1-.1h-.1l-1.3.7-.5.3-.3-.2-.2-.2-.8-.4-.5-.2V2L9 2H7l-.2.1v2l-.3.1h-.2l-.8.5-.5.4-.3-.2-.2-.1-1.3-.7H3L2 5.9V6l1.3.7.5.3v2l-.3.2h-.2l-1.2.8H2v.2l1 1.6.1.1h.1l1.3-.7.5-.3.3.2.2.2.8.4.5.2v2l.2.1H9v-2.1l.4-.1h.2l.7-.5.6-.4zm-.8 1.6v1.3c0 .3-.1.6-.4.8-.2.2-.5.3-.8.3H7c-.7 0-1.2-.5-1.2-1.1v-1.3L5 12l-1.1.7h-1c-.2 0-.5-.2-.6-.5l-1-1.6a1 1 0 0 1-.2-.9c.1-.3.3-.5.6-.7l1.2-.6v-1L1.6 7c-.3-.2-.5-.4-.6-.7 0-.3 0-.6.2-.9l1-1.6c.3-.6 1-.8 1.6-.5l1.1.7 1-.5V2.1c0-.6.4-1.1 1-1.1H9c.7 0 1.2.5 1.2 1.1v1.3l.9.5 1.1-.7h1c.2 0 .5.2.6.5l1 1.6c.2.3.2.6.2.9-.1.3-.3.5-.6.7l-1.2.6v1l1.2.6c.3.2.5.4.6.7 0 .3 0 .6-.2.9l-1 1.6c-.3.6-1 .8-1.6.5l-1.1-.7-1 .5zM8 11a3 3 0 1 1 0-6 3 3 0 0 1 0 6zm0-1a2 2 0 1 0 0-4 2 2 0 0 0 0 4z"/>
  </defs>
  <g fill="none" fill-rule="evenodd">
    <mask id="b" fill="#fff">
      <use xlink:href="#a"/>
    </mask>
    <g fill="#fff" fill-opacity=".9" mask="url(#b)" opacity=".9">
      <rect width="16" height="16" rx="2"/>
    </g>
  </g>
</svg>
