<?xml version="1.0" encoding="UTF-8"?>
<svg width="65px" height="22px" viewBox="0 0 65 22" version="1.1" xmlns="http://www.w3.org/2000/svg" xmlns:xlink="http://www.w3.org/1999/xlink">
    <!-- Generator: Sketch 54.1 (76490) - https://sketchapp.com -->
    <title>quarks/logos/dark/logo__legacy_icon</title>
    <desc>Created with Sketch.</desc>
    <g id="quarks/logos/dark/logo__legacy" stroke="none" stroke-width="1" fill="none" fill-rule="evenodd">
        <path d="M61.7101476,14.5356225 C61.638842,13.2085185 60.704433,12.1227664 59.1960798,12.1227664 C57.664104,12.1227664 56.6341106,13.1119778 56.4665644,14.5356225 L61.7101476,14.5356225 L61.7101476,14.5356225 Z M55.030173,20.3747918 C53.7606716,19.2165239 53.114547,17.6723135 53.114547,15.7659654 C53.114547,13.9808441 53.6893661,12.4846837 54.8381292,11.2783659 C55.9875485,10.0475822 57.4965578,9.44453344 59.3400033,9.44453344 C61.0878644,9.44453344 62.452294,10.0718276 63.4822875,11.3026113 C64.5116248,12.5329541 65.0387609,14.0288941 65.0387609,15.8144561 L65.0387609,16.707127 L56.4665644,16.707127 C56.8254982,18.347878 58.3581302,19.2165239 60.464925,19.2165239 C61.8063882,19.2165239 63.0752334,18.854386 64.2966145,18.155017 L64.2966145,20.8812998 C63.2191569,21.7018958 61.7101476,22.1120835 59.7470574,22.1120835 C57.8791143,22.1120835 56.2990182,21.5330597 55.030173,20.3747918 Z M41.2240173,21.9604397 L41.2240173,8.49058792 L44.6438405,5.05016843 L44.6438405,14.2113957 L48.816528,9.76236833 L53.0132756,9.76236833 L47.7489132,15.2625431 L53.8381016,21.9604397 L49.422844,21.9604397 L44.6438405,16.7047024 L44.6438405,21.9604397 L41.2240173,21.9604397 Z M34.9344735,21.9604397 L34.9344735,14.4483391 L38.3545154,11.1608859 L38.3545154,21.9604397 L34.9344735,21.9604397 Z M25.3051611,21.9604397 L25.3051611,9.76236833 L28.7249843,9.76236833 L28.7249843,12.4518423 C29.7818814,9.30170609 33.3342543,9.76964193 33.3342543,9.76964193 L33.3342543,13.1428356 C33.3342543,13.1428356 28.7249843,12.79789 28.7249843,16.5739978 L28.7249843,21.9604397 L25.3051611,21.9604397 Z M5.70072617,22.0580825 L0,4.84871136 L3.88177828,4.84871136 L7.37465696,16.3868675 L11.2076587,4.80000019 L13.9242692,4.80000019 L17.7813312,16.3868675 L21.274866,4.84871136 L25.0831514,4.84871136 L19.3583651,22.0580825 L16.2773526,22.0580825 L12.565964,10.6422552 L8.78173868,22.0580825 L5.70072617,22.0580825 Z" id="wrike_lettering" fill="#FFFFFF"></path>
        <g id="tick" transform="translate(30.000000, 0.000000)">
            <polyline id="Fill-8" fill="#009949" points="4 7.72727273 6.22222222 10 16 0 11.5555556 0"></polyline>
            <path d="M0.444444444,4.09090909 L6.22222222,10 L8.44444444,7.72727273 L4.88888889,4.09090909 L0.444444444,4.09090909 Z" id="Fill-9" fill="#9FD326"></path>
        </g>
    </g>
</svg>